<svg width="48" height="48" viewBox="0 0 48 48" fill="none" xmlns="http://www.w3.org/2000/svg">
<rect width="48" height="48" rx="8" fill="#FAF5E6"/>
<path d="M21.966 9.04796C19.8574 9.27349 17.7117 9.88732 15.7585 10.7597C15.1021 11.0543 14.4628 11.382 13.8713 11.7618C13.3266 12.115 12.7479 12.549 12.3936 13.065C12.0681 13.5246 12.1298 13.9309 12.5532 14.299C13.0479 14.7511 13.7734 15.0043 14.45 15.1043C15.0104 15.1842 15.5756 15.1925 16.1342 15.0899L16.1664 15.0804H16.1847C16.2943 15.0589 16.4035 15.0332 16.5124 15.0028C16.614 14.9745 16.7213 14.97 16.8237 14.9955L16.9064 15.016C17.3372 15.1235 17.6 15.5607 17.4926 15.9916C17.4266 16.2554 17.233 16.4575 16.9979 16.549C16.3287 16.8033 15.6862 17.1139 15.0638 17.4575C11.5968 19.3948 8.06064 23.0128 8.41383 27.2554C8.86702 32.5671 15.4415 36.8097 20.4766 35.2554C21.0883 35.0543 21.6543 34.7533 22.1521 34.3692C23.0723 33.716 24.0596 34.9926 23.1915 35.7182C22.5096 36.2001 21.7362 36.5522 20.9362 36.7767C15.7447 38.1522 9.59894 34.5639 7.78404 29.6192C6.65638 26.6043 7.48404 23.3799 9.41489 20.9001C10.9308 18.9314 12.88 17.4594 14.8612 16.017C14.5836 15.9329 14.3059 15.855 14.0273 15.7768L14.0269 15.7766C13.7406 15.6963 13.4532 15.6156 13.1638 15.5277C12.7851 15.4118 12.3979 15.2905 12.0106 15.0735C10.9702 14.5086 10.7489 13.4139 11.3596 12.4235C12.8479 10.0969 16.8904 8.482 19.4713 7.79902C20.2245 7.60434 20.9926 7.44689 21.7798 7.35434C22.9138 7.26604 23.0957 8.88306 21.966 9.04583V9.04796Z" fill="#121212"/>
<path d="M33.5996 11.4193C33.7071 18.6581 31.953 26.9691 27.1415 32.4713C27.0254 32.6073 26.8277 32.8157 26.6459 33.0072C26.5277 33.1318 26.4163 33.2492 26.3383 33.3351C26.017 33.6777 25.4777 33.6958 25.1351 33.3745C24.7691 33.0351 24.7808 32.4479 25.1511 32.116C25.2143 32.0528 25.2831 31.9848 25.355 31.9138C25.6252 31.6469 25.9376 31.3383 26.1511 31.0862C28.4479 28.5554 29.9702 25.4437 31.0011 22.1915C32.0308 18.8905 32.5755 15.4373 32.7096 11.982C32.7229 11.5923 32.7317 11.1968 32.7297 10.8113C32.0885 10.403 31.4019 10.0494 30.6702 9.7574C30.3745 9.634 30.0489 9.5074 29.7426 9.40847C28.4915 8.98932 27.1819 8.74676 25.8745 8.72868C25.4021 8.7223 25.0245 8.334 25.0319 7.86166C25.033 7.33081 25.5436 6.92336 26.0617 7.03719C26.7691 7.18293 27.4681 7.34357 28.1543 7.54676C30.0287 8.08932 31.834 8.89144 33.4787 9.94464C34.5319 10.6127 35.5011 11.4276 36.3585 12.3308C37.5915 13.6117 38.6074 15.0872 39.5436 16.5872C39.7947 16.9872 39.6734 17.5159 39.2734 17.7659C38.834 18.0457 38.2309 17.8531 38.033 17.3712H38.0319C37.0517 14.9942 35.572 12.9277 33.5996 11.4193Z" fill="#121212"/>
<path fill-rule="evenodd" clip-rule="evenodd" d="M31.1582 30.1748C31.8201 28.9017 32.4829 27.6267 32.9713 26.2756C33.6267 24.4658 34.0484 22.588 34.4701 20.7095C34.6015 20.1245 34.7328 19.5395 34.8713 18.9564C34.9691 18.5256 35.417 18.2798 35.8287 18.3852C35.8777 18.3932 35.9901 18.4169 36.0712 18.4341C36.0884 18.4377 36.1043 18.441 36.1177 18.4439C36.1249 18.4454 36.1315 18.4467 36.1372 18.4479C37.0574 18.6607 37.9415 18.9969 38.7574 19.4788C40.1681 20.2947 41.2872 21.682 41.6223 23.2926C42.1266 25.5766 41.3649 28.9266 39.7808 30.6649C37.7957 32.8766 34.5202 33.3894 31.716 32.8501C31.45 32.7979 31.1681 32.733 30.9085 32.6511L30.9083 32.6507C30.906 32.6595 30.8663 32.6539 30.5979 32.4511C30.3234 32.1713 30.3298 31.7564 30.4649 31.5224L30.466 31.5245C30.6915 31.0727 30.9248 30.6238 31.1582 30.1748ZM31.8798 32.2639C31.8846 32.2556 31.8892 32.247 31.8936 32.2383L31.8798 32.2639ZM32.7277 31.4649C32.5935 31.438 32.4593 31.4102 32.3255 31.3807C32.9173 30.123 33.3792 28.788 33.8106 27.4766C34.6377 25.0024 35.4602 22.5129 36.2169 20.0181C38.783 20.4006 40.8061 22.0865 40.8351 24.8841C40.8255 26.6841 40.3787 28.7107 39.1511 30.099C37.5617 31.899 34.917 31.9032 32.7277 31.4649ZM31.4511 31.1522C31.4627 31.1558 31.4743 31.1595 31.486 31.163C31.4523 31.1442 31.4445 31.1454 31.4445 31.1498L31.4511 31.1522ZM31.4445 31.1498C31.4446 31.1548 31.4548 31.1639 31.4479 31.1511L31.4445 31.1498Z" fill="#121212"/>
<path fill-rule="evenodd" clip-rule="evenodd" d="M4 24C4 12.9543 12.9543 4 24 4C35.0457 4 44 12.9543 44 24C44 35.0457 35.0457 44 24 44C12.9543 44 4 35.0457 4 24ZM24 5.06383C13.5418 5.06383 5.06383 13.5418 5.06383 24C5.06383 34.4582 13.5418 42.9362 24 42.9362C34.4582 42.9362 42.9362 34.4582 42.9362 24C42.9362 13.5418 34.4582 5.06383 24 5.06383Z" fill="#121212"/>
</svg>
