<svg width="906" height="145" viewBox="0 0 906 145" fill="none" xmlns="http://www.w3.org/2000/svg">
<path d="M83.7943 103.104C101.116 83.2961 107.431 53.3767 107.043 27.317C114.144 32.7471 119.471 40.1865 123 48.7438H123.004C123.716 50.4787 125.888 51.1719 127.469 50.1647C128.909 49.2647 129.346 47.3613 128.442 45.9213C125.072 40.5213 121.414 35.2094 116.976 30.5983C113.889 27.3468 110.4 24.4132 106.608 22.0081C100.688 18.2166 94.1884 15.329 87.4403 13.3758C84.9701 12.6443 82.4539 12.066 79.9071 11.5413C78.042 11.1315 76.2037 12.5983 76.1999 14.5094C76.1731 16.2098 77.5326 17.6077 79.2331 17.6307C83.9399 17.6958 88.6543 18.569 93.1582 20.0779C94.2611 20.4341 95.4331 20.8898 96.4977 21.3341C99.1319 22.3853 101.603 23.6583 103.912 25.1282C103.919 26.5158 103.888 27.9398 103.839 29.3425C103.357 41.7816 101.396 54.2131 97.6888 66.0969C93.9777 77.8046 88.4973 89.0067 80.2288 98.1178C79.4603 99.0254 78.3357 100.136 77.3629 101.097C77.1043 101.353 76.8564 101.597 76.6288 101.825C75.296 103.02 75.2539 105.134 76.5714 106.356C77.8045 107.512 79.7462 107.447 80.9028 106.214C81.1835 105.905 81.5848 105.482 82.0103 105.033C82.6649 104.344 83.3766 103.594 83.7943 103.104Z" fill="#121212"/>
<path d="M42.8156 24.9422C49.8471 21.8018 57.5718 19.592 65.1624 18.7801V18.7724C69.2297 18.1865 68.5748 12.3652 64.4922 12.683C61.6582 13.0162 58.8931 13.583 56.1816 14.2839C46.8905 16.7426 32.3373 22.5562 26.9795 30.932C24.7812 34.4975 25.5777 38.4384 29.3233 40.472C30.7173 41.2533 32.1114 41.6899 33.4748 42.1073C34.5162 42.4235 35.5504 42.7138 36.5808 43.0031L36.5818 43.0033L36.5834 43.0038C37.5861 43.2853 38.5862 43.566 39.5854 43.8685C32.4531 49.0614 25.4359 54.3604 19.9786 61.4477C13.0275 70.375 10.048 81.983 14.1075 92.8367C20.6412 110.637 42.7658 123.555 61.4552 118.603C64.3352 117.795 67.1194 116.528 69.5743 114.793C72.6994 112.181 69.1454 107.585 65.8326 109.937C64.0403 111.319 62.0028 112.403 59.8007 113.127C41.6743 118.722 18.0063 103.449 16.3748 84.3269C15.1033 69.0537 27.8335 56.0286 40.3148 49.0545C42.5552 47.8175 44.8684 46.6992 47.2773 45.7839C48.1237 45.4545 48.8207 44.7269 49.0582 43.7771C49.445 42.226 48.499 40.652 46.948 40.2652L46.6502 40.1911C46.2816 40.0993 45.8955 40.1155 45.5296 40.2175C45.1376 40.3268 44.7443 40.4195 44.3501 40.4967H44.284L44.1682 40.5312C42.1573 40.9004 40.1223 40.8704 38.105 40.583C35.6692 40.223 33.0573 39.3116 31.2765 37.6839C29.7522 36.3588 29.5301 34.8958 30.702 33.2413C31.9773 31.3839 34.0607 29.8213 36.0216 28.5499C38.1509 27.1826 40.4526 26.003 42.8156 24.9422Z" fill="#121212"/>
<path fill-rule="evenodd" clip-rule="evenodd" d="M98.2546 94.8366C100.637 90.2534 103.023 85.6634 104.782 80.7995C107.141 74.2843 108.659 67.524 110.177 60.7617C110.65 58.6558 111.123 56.5496 111.622 54.4506C111.974 52.8995 113.586 52.0148 115.068 52.394C115.245 52.4229 115.649 52.5084 115.941 52.57L116.109 52.6053L116.179 52.6199C119.492 53.3859 122.674 54.5961 125.612 56.331C130.69 59.2685 134.719 64.2625 135.925 70.0608C137.741 78.2833 134.999 90.3433 129.296 96.6012C122.15 104.563 110.358 106.409 100.262 104.468C99.305 104.28 98.2901 104.046 97.3556 103.751L97.3547 103.75C97.3465 103.782 97.2037 103.761 96.2373 103.031C95.2492 102.024 95.2722 100.531 95.7586 99.688L95.7624 99.6957C96.574 98.0695 97.4137 96.4542 98.2538 94.8382L98.2546 94.8366ZM100.852 102.357C100.869 102.327 100.886 102.297 100.902 102.265L100.852 102.357ZM103.905 99.4812C103.422 99.3844 102.939 99.2842 102.457 99.1778C104.587 94.6503 106.25 89.8443 107.803 85.1233C110.781 76.2162 113.742 67.254 116.466 58.2724C125.704 59.6495 132.987 65.7188 133.091 75.7902C133.057 82.2702 131.448 89.5659 127.029 94.5638C121.307 101.044 111.786 101.059 103.905 99.4812ZM99.3088 98.3553C99.3507 98.3684 99.3926 98.3814 99.4345 98.3944C99.3134 98.3265 99.2853 98.331 99.2853 98.3467C99.2855 98.3648 99.3222 98.3974 99.2973 98.3514L99.2853 98.3467L99.3088 98.3553Z" fill="#121212"/>
<path fill-rule="evenodd" clip-rule="evenodd" d="M72.485 0.607422C32.7205 0.607422 0.484985 32.8429 0.484985 72.6074C0.484985 112.372 32.7205 144.607 72.485 144.607C112.249 144.607 144.485 112.372 144.485 72.6074C144.485 32.8429 112.249 0.607422 72.485 0.607422ZM4.31477 72.6074C4.31477 34.958 34.8356 4.43721 72.485 4.43721C110.134 4.43721 140.655 34.958 140.655 72.6074C140.655 110.257 110.134 140.778 72.485 140.778C34.8356 140.778 4.31477 110.257 4.31477 72.6074Z" fill="#121212"/>
<path fill-rule="evenodd" clip-rule="evenodd" d="M242.719 110.298C239.735 110.298 237.056 109.281 234.682 107.246C232.376 105.144 230.579 102.261 229.291 98.599C228.002 94.8688 227.358 90.5621 227.358 85.6789C227.358 79.9818 228.239 74.9969 230.003 70.7241C231.766 66.3835 234.208 62.9924 237.327 60.5508C240.447 58.1092 243.974 56.8884 247.908 56.8884C248.857 56.8884 249.807 56.9901 250.756 57.1936C251.706 57.3292 252.621 57.6005 253.503 58.0075C254.588 58.55 255.131 58.3127 255.131 57.2953V44.2735C255.131 43.0527 254.927 42.2049 254.52 41.7301C254.181 41.2554 253.537 40.9841 252.587 40.9163L249.942 40.6111C249.196 40.4754 248.823 40.0685 248.823 39.3903C248.823 38.712 249.196 38.3051 249.942 38.1695C252.113 37.7625 253.842 37.2878 255.131 36.7452C256.487 36.2026 257.606 35.66 258.488 35.1175C259.573 34.4392 260.387 34.1001 260.93 34.1001C261.676 34.1001 262.049 34.6427 262.049 35.7279V99.7181C262.049 102.567 262.761 103.991 264.185 103.991C265.067 103.991 265.881 103.414 266.627 102.261C267.373 101.041 267.746 99.006 267.746 96.1574C267.746 95.0723 268.187 94.5297 269.068 94.5297C269.882 94.5297 270.289 95.1062 270.289 96.2592C270.289 101.21 269.441 104.805 267.746 107.043C266.05 109.213 264.117 110.298 261.947 110.298C259.98 110.298 258.488 109.654 257.471 108.365C256.453 107.009 255.775 105.415 255.436 103.584C255.368 103.041 255.131 102.77 254.724 102.77C254.317 102.702 253.944 102.94 253.605 103.482C251.706 106.127 249.976 107.925 248.416 108.874C246.856 109.824 244.957 110.298 242.719 110.298ZM244.957 105.619C246.721 105.619 248.349 105.042 249.841 103.889C251.401 102.668 252.655 101.041 253.605 99.006C254.622 96.9713 255.131 94.6993 255.131 92.1898V69.2999C255.131 66.2479 254.419 63.8402 252.994 62.0768C251.638 60.3134 249.841 59.4317 247.603 59.4317C243.805 59.4317 240.719 61.6699 238.345 66.1461C236.039 70.5546 234.886 76.5907 234.886 84.2546C234.886 91.2403 235.768 96.5644 237.531 100.227C239.362 103.821 241.838 105.619 244.957 105.619Z" fill="#121212"/>
<path d="M516.633 108.264C516.633 109.01 517.04 109.383 517.854 109.383H535.962C536.776 109.383 537.183 109.01 537.183 108.264C537.183 107.585 536.81 107.179 536.064 107.043L533.724 106.738C532.3 106.534 531.35 106.161 530.876 105.619C530.469 105.008 530.265 103.991 530.265 102.567V35.7279C530.265 34.6427 529.892 34.1001 529.146 34.1001C528.604 34.1001 527.79 34.4392 526.705 35.1175C525.823 35.66 524.704 36.2026 523.347 36.7452C521.991 37.2878 520.363 37.7625 518.464 38.1695C517.718 38.3051 517.345 38.712 517.345 39.3903C517.345 40.0685 517.718 40.4754 518.464 40.6111L520.804 40.9163C521.754 40.9841 522.398 41.2554 522.737 41.7301C523.144 42.2049 523.347 43.0527 523.347 44.2735V102.567C523.347 103.991 523.008 105.008 522.33 105.619C521.652 106.229 520.601 106.636 519.176 106.839L517.752 107.043C517.006 107.179 516.633 107.585 516.633 108.264Z" fill="#121212"/>
<path fill-rule="evenodd" clip-rule="evenodd" d="M692.411 109.383C691.394 109.383 690.885 109.01 690.885 108.264C690.885 107.653 691.326 107.246 692.208 107.043L694.548 106.636C696.854 106.229 698.007 104.906 698.007 102.668V42.8492C698.007 41.4249 697.769 40.4754 697.295 40.0007C696.888 39.5259 695.972 39.1529 694.548 38.8816L692.208 38.4747C691.326 38.2712 690.885 37.8643 690.885 37.2539C690.885 36.5078 691.394 36.1348 692.411 36.1348H712.962C718.252 36.1348 722.83 37.6947 726.696 40.8145C730.561 43.8665 733.546 48.1732 735.648 53.7347C737.751 59.2961 738.802 65.7392 738.802 73.064C738.802 80.4566 737.683 86.8658 735.445 92.2916C733.274 97.7174 730.188 101.922 726.187 104.907C722.185 107.891 717.438 109.383 711.944 109.383H692.411ZM712.351 106.738C718.387 106.738 722.965 103.855 726.085 98.0904C729.273 92.3255 730.867 83.9834 730.867 73.064C730.867 62.2124 729.341 53.8025 726.289 47.8341C723.304 41.798 718.862 38.7799 712.962 38.7799C707.807 38.7799 705.23 41.2554 705.23 46.2064V99.3112C705.23 102.024 705.772 103.957 706.858 105.11C708.011 106.195 709.842 106.738 712.351 106.738Z" fill="#121212"/>
<path d="M809.136 46.3081C810.153 47.3255 811.374 47.8341 812.798 47.8341C814.223 47.8341 815.41 47.3255 816.359 46.3081C817.309 45.2908 817.783 44.0022 817.783 42.4423C817.783 40.8824 817.309 39.6276 816.359 38.6781C815.41 37.6608 814.223 37.1521 812.798 37.1521C811.374 37.1521 810.153 37.6608 809.136 38.6781C808.187 39.6276 807.712 40.8824 807.712 42.4423C807.712 44.0022 808.187 45.2908 809.136 46.3081Z" fill="#121212"/>
<path d="M802.727 108.264C802.727 109.01 803.236 109.383 804.253 109.383H821.242C822.26 109.383 822.768 108.976 822.768 108.162C822.768 107.552 822.395 107.179 821.649 107.043L819.106 106.738C817.953 106.602 817.173 106.229 816.766 105.619C816.359 105.008 816.156 103.991 816.156 102.567V58.4144C816.156 57.6005 815.85 57.1936 815.24 57.1936C814.833 57.1936 814.324 57.4988 813.714 58.1092C812.493 59.1943 811.239 60.1099 809.95 60.856C808.661 61.602 806.966 62.1446 804.863 62.4837C803.778 62.6872 803.236 63.0602 803.236 63.6028C803.236 64.281 803.676 64.654 804.558 64.7219L806.695 65.0271C807.644 65.1627 808.288 65.4679 808.627 65.9427C809.034 66.3496 809.238 67.1635 809.238 68.3843V102.567C809.238 103.991 809 105.008 808.526 105.619C808.051 106.161 806.966 106.568 805.27 106.839L804.049 107.043C803.168 107.246 802.727 107.653 802.727 108.264Z" fill="#121212"/>
<path fill-rule="evenodd" clip-rule="evenodd" d="M838.909 131.255C833.755 131.255 829.685 130.204 826.701 128.102C823.717 126.067 822.225 123.592 822.225 120.675C822.225 119.454 822.394 118.335 822.733 117.318C823.072 116.368 823.785 115.249 824.87 113.961C826.023 112.672 827.752 111.01 830.058 108.976C830.872 108.23 831.279 107.552 831.279 106.941C831.279 106.263 830.872 105.754 830.058 105.415C827.617 104.398 826.158 103.109 825.684 101.549C825.209 99.9216 825.785 98.4295 827.413 97.073L834.738 90.7656C835.552 90.0874 835.518 89.5109 834.636 89.0361C831.855 87.6797 829.651 85.5772 828.023 82.7287C826.396 79.8801 825.582 76.8281 825.582 73.5727C825.582 70.4528 826.26 67.6382 827.617 65.1288C828.973 62.6194 830.804 60.6186 833.11 59.1265C835.416 57.6344 837.993 56.8884 840.842 56.8884C842.47 56.8884 844.03 57.1597 845.522 57.7023C846.471 58.0414 847.048 57.7362 847.251 56.7867C847.862 54.2094 848.981 52.2087 850.608 50.7844C852.304 49.2923 853.966 48.5463 855.593 48.5463C857.153 48.5463 858.408 49.021 859.357 49.9705C860.375 50.8522 860.883 51.9713 860.883 53.3277C860.883 54.4807 860.544 55.3963 859.866 56.0745C859.188 56.7528 858.34 57.0919 857.323 57.0919C856.441 57.0919 855.797 56.9223 855.39 56.5832C854.983 56.2441 854.61 55.905 854.271 55.5659C853.932 55.2267 853.389 55.0572 852.643 55.0572C851.015 55.0572 849.998 55.9389 849.591 57.7023C849.387 58.3805 849.387 58.957 849.591 59.4317C849.862 59.9065 850.235 60.3812 850.71 60.856C852.338 62.4159 853.592 64.3149 854.474 66.5531C855.424 68.7912 855.898 71.2667 855.898 73.9796C855.898 77.235 855.22 80.1514 853.864 82.7287C852.575 85.3059 850.778 87.3406 848.472 88.8327C846.234 90.3247 843.69 91.0708 840.842 91.0708C839.621 91.0708 838.57 91.3421 837.688 91.8846C836.806 92.3594 835.925 93.0715 835.043 94.021L833.314 95.954C832.432 97.0391 832.161 98.0904 832.5 99.1077C832.907 100.057 833.856 100.532 835.348 100.532H844.097C848.981 100.532 852.846 101.753 855.695 104.194C858.543 106.568 859.968 109.858 859.968 114.062C859.968 117.386 859.018 120.336 857.119 122.913C855.22 125.491 852.677 127.525 849.489 129.017C846.369 130.509 842.843 131.255 838.909 131.255ZM840.74 88.5274C843.182 88.5274 845.115 87.2049 846.539 84.5598C847.963 81.9148 848.675 78.3202 848.675 73.7761C848.675 69.3677 847.929 65.8409 846.437 63.1959C845.013 60.483 843.114 59.1265 840.74 59.1265C838.366 59.1265 836.433 60.483 834.941 63.1959C833.517 65.8409 832.805 69.3677 832.805 73.7761C832.805 78.3202 833.517 81.9148 834.941 84.5598C836.366 87.2049 838.299 88.5274 840.74 88.5274ZM840.13 129.017C842.571 129.017 844.81 128.475 846.844 127.39C848.879 126.304 850.473 124.778 851.626 122.812C852.846 120.913 853.457 118.742 853.457 116.301C853.457 113.249 852.541 110.909 850.71 109.281C848.947 107.585 846.437 106.738 843.182 106.738H840.842C838.739 106.738 837.146 106.941 836.06 107.348C835.043 107.755 834.06 108.467 833.11 109.484C831.008 111.723 829.685 113.52 829.143 114.876C828.6 116.233 828.329 117.623 828.329 119.047C828.329 122.032 829.346 124.439 831.381 126.27C833.483 128.102 836.4 129.017 840.13 129.017Z" fill="#121212"/>
<path d="M861.732 109.383C860.715 109.383 860.206 109.01 860.206 108.264C860.206 107.653 860.647 107.246 861.529 107.043L862.749 106.839C864.174 106.568 865.089 106.161 865.496 105.619C865.971 105.008 866.208 103.991 866.208 102.567V68.3843C866.208 67.1635 866.005 66.3496 865.598 65.9427C865.259 65.4679 864.615 65.1627 863.665 65.0271L861.529 64.7219C860.647 64.654 860.206 64.281 860.206 63.6028C860.206 63.0602 860.749 62.6872 861.834 62.4837C863.936 62.1446 865.53 61.602 866.615 60.856C867.768 60.1099 868.955 59.1943 870.176 58.1092C870.786 57.4988 871.295 57.1936 871.702 57.1936C872.312 57.1936 872.618 57.6005 872.618 58.4144V62.9924C872.618 63.6028 872.821 64.0097 873.228 64.2132C873.703 64.3488 874.211 64.1454 874.754 63.6028C877.467 61.0255 879.841 59.2622 881.875 58.3127C883.978 57.3631 886.182 56.8884 888.488 56.8884C891.54 56.8884 893.982 57.9736 895.813 60.1439C897.644 62.2463 898.56 65.3662 898.56 69.5033V102.567C898.56 103.991 898.763 105.008 899.17 105.619C899.645 106.161 900.594 106.534 902.019 106.738L904.257 107.043C905.003 107.179 905.376 107.585 905.376 108.264C905.376 109.01 904.969 109.383 904.155 109.383H887.064C886.114 109.383 885.64 109.01 885.64 108.264C885.64 107.585 886.013 107.179 886.759 107.043L888.183 106.839C889.607 106.636 890.523 106.229 890.93 105.619C891.404 105.008 891.642 103.991 891.642 102.567V70.6224C891.642 67.2991 891.031 64.9592 889.811 63.6028C888.59 62.2463 886.86 61.5681 884.622 61.5681C882.452 61.5681 880.485 62.2124 878.722 63.5011C877.026 64.7219 875.67 66.3835 874.652 68.486C873.635 70.5207 873.126 72.7927 873.126 75.3021V102.567C873.126 103.991 873.33 105.008 873.737 105.619C874.211 106.229 875.161 106.602 876.585 106.738L879.332 107.043C880.078 107.179 880.451 107.552 880.451 108.162C880.451 108.976 879.942 109.383 878.925 109.383H861.732Z" fill="#121212"/>
<path d="M786.285 110.298C784.725 110.298 783.063 110.095 781.3 109.688C779.537 109.349 778.112 108.908 777.027 108.365C776.417 108.026 776.112 107.45 776.112 106.636L775.806 95.2418C775.806 94.0889 776.247 93.5124 777.129 93.5124C777.875 93.5124 778.384 94.055 778.655 95.1401C779.808 99.9555 781.198 103.245 782.826 105.008C784.522 106.772 786.556 107.653 788.93 107.653C790.897 107.653 792.525 106.907 793.813 105.415C795.102 103.855 795.746 101.719 795.746 99.006C795.746 96.2931 795 93.8854 793.508 91.7829C792.016 89.6804 789.507 87.3745 785.98 84.8651C782.453 82.4913 779.876 80.1175 778.248 77.7437C776.62 75.3021 775.806 72.6571 775.806 69.8085C775.806 65.9427 777.163 62.8228 779.876 60.4491C782.589 58.0753 786.183 56.8884 790.66 56.8884C792.016 56.8884 793.339 57.058 794.627 57.3971C795.916 57.6683 797.069 58.1431 798.086 58.8213C798.697 59.2283 799.002 59.7708 799.002 60.4491L799.205 71.6397C799.205 72.6571 798.798 73.1657 797.984 73.1657C797.51 73.1657 797.17 73.0301 796.967 72.7588C796.764 72.4197 796.594 72.0127 796.458 71.538C795.102 67.1295 793.745 64.0775 792.389 62.382C791.033 60.6186 789.371 59.7369 787.404 59.7369C785.641 59.7369 784.183 60.3473 783.03 61.5681C781.877 62.7889 781.3 64.3149 781.3 66.1461C781.3 68.5199 782.012 70.5885 783.436 72.3519C784.861 74.1152 787.438 76.2855 791.168 78.8628C794.559 81.3044 797.103 83.9494 798.798 86.798C800.562 89.5787 801.443 92.6307 801.443 95.954C801.443 100.295 800.053 103.787 797.272 106.433C794.491 109.01 790.829 110.298 786.285 110.298Z" fill="#121212"/>
<path fill-rule="evenodd" clip-rule="evenodd" d="M750.631 107.043C753.208 109.213 756.124 110.298 759.38 110.298C762.771 110.298 765.653 109.111 768.027 106.738C770.401 104.296 772.13 100.057 773.216 94.021C773.419 92.6646 773.114 91.9864 772.3 91.9864C771.622 91.9864 771.181 92.3594 770.977 93.1054C769.96 97.4461 768.637 100.532 767.01 102.363C765.382 104.194 763.279 105.11 760.702 105.11C757.447 105.11 754.768 103.313 752.665 99.7181C750.563 96.1235 749.512 90.7317 749.512 83.5425C749.512 81.9826 750.19 81.2027 751.546 81.2027H770.876C772.571 81.2027 773.419 80.0836 773.419 77.8455C773.419 70.4528 772.164 65.1288 769.655 61.8733C767.213 58.55 763.992 56.8884 759.99 56.8884C756.667 56.8884 753.649 58.0414 750.936 60.3473C748.223 62.6533 746.087 65.8409 744.527 69.9103C742.967 73.9796 742.187 78.6932 742.187 84.0512C742.187 89.2735 742.933 93.8854 744.425 97.8869C745.985 101.821 748.053 104.873 750.631 107.043ZM761.516 78.6593H751.241C750.088 78.6593 749.579 78.1167 749.715 77.0316C750.258 71.4023 751.411 67.0617 753.174 64.0097C755.005 60.9577 757.243 59.4317 759.888 59.4317C762.059 59.4317 763.686 60.6864 764.772 63.1959C765.857 65.7053 766.399 69.1642 766.399 73.5727C766.399 76.9638 764.772 78.6593 761.516 78.6593Z" fill="#121212"/>
<path d="M631.509 108.264C631.509 109.01 632.018 109.383 633.035 109.383H650.228C651.245 109.383 651.754 108.976 651.754 108.162C651.754 107.552 651.381 107.179 650.635 107.043L647.888 106.738C646.464 106.602 645.514 106.229 645.039 105.619C644.633 105.008 644.429 103.991 644.429 102.567V75.3021C644.429 72.7927 644.938 70.5207 645.955 68.486C646.972 66.3835 648.329 64.7219 650.024 63.5011C651.788 62.2124 653.755 61.5681 655.925 61.5681C658.163 61.5681 659.893 62.2463 661.113 63.6028C662.334 64.9592 662.945 67.2991 662.945 70.6224V102.567C662.945 103.991 662.707 105.008 662.232 105.619C661.825 106.229 660.91 106.636 659.486 106.839L658.061 107.043C657.315 107.179 656.942 107.585 656.942 108.264C656.942 109.01 657.417 109.383 658.367 109.383H675.458C676.272 109.383 676.679 109.01 676.679 108.264C676.679 107.585 676.306 107.179 675.56 107.043L673.321 106.738C671.897 106.534 670.948 106.161 670.473 105.619C670.066 105.008 669.862 103.991 669.862 102.567V69.5033C669.862 65.3662 668.947 62.2463 667.116 60.1439C665.284 57.9736 662.843 56.8884 659.791 56.8884C657.485 56.8884 655.281 57.3631 653.178 58.3127C651.143 59.2622 648.77 61.0255 646.057 63.6028C645.514 64.1454 645.006 64.3488 644.531 64.2132C644.124 64.0097 643.92 63.6028 643.92 62.9924V58.4144C643.92 57.6005 643.615 57.1936 643.005 57.1936C642.598 57.1936 642.089 57.4988 641.479 58.1092C640.258 59.1943 639.071 60.1099 637.918 60.856C636.833 61.602 635.239 62.1446 633.137 62.4837C632.052 62.6872 631.509 63.0602 631.509 63.6028C631.509 64.281 631.95 64.654 632.831 64.7219L634.968 65.0271C635.917 65.1627 636.562 65.4679 636.901 65.9427C637.308 66.3496 637.511 67.1635 637.511 68.3843V102.567C637.511 103.991 637.274 105.008 636.799 105.619C636.392 106.161 635.477 106.568 634.052 106.839L632.831 107.043C631.95 107.246 631.509 107.653 631.509 108.264Z" fill="#121212"/>
<path fill-rule="evenodd" clip-rule="evenodd" d="M612.159 110.298C608.7 110.298 605.58 109.145 602.8 106.839C600.087 104.466 597.916 101.244 596.289 97.1748C594.661 93.1054 593.847 88.5614 593.847 83.5425C593.847 78.5237 594.661 74.0135 596.289 70.012C597.916 66.0105 600.121 62.8228 602.901 60.4491C605.682 58.0753 608.768 56.8884 612.159 56.8884C615.618 56.8884 618.704 58.0753 621.417 60.4491C624.197 62.8228 626.402 66.0105 628.029 70.012C629.657 74.0135 630.471 78.5237 630.471 83.5425C630.471 88.5614 629.657 93.1054 628.029 97.1748C626.469 101.244 624.299 104.466 621.518 106.839C618.738 109.145 615.618 110.298 612.159 110.298ZM612.159 107.755C619.213 107.755 622.739 99.6842 622.739 83.5425C622.739 67.4687 619.213 59.4317 612.159 59.4317C605.105 59.4317 601.579 67.4687 601.579 83.5425C601.579 99.6842 605.105 107.755 612.159 107.755Z" fill="#121212"/>
<path d="M577.286 107.857C578.846 109.484 580.813 110.298 583.187 110.298C585.764 110.298 588.002 109.145 589.901 106.839C591.868 104.533 592.953 100.769 593.156 95.547C593.156 94.5297 592.749 94.021 591.936 94.021C591.19 94.021 590.749 94.4958 590.613 95.4453C590.342 98.633 589.731 100.939 588.782 102.363C587.9 103.787 586.747 104.5 585.323 104.5C584.034 104.5 583.153 104.093 582.678 103.279C582.203 102.397 581.966 101.21 581.966 99.7181V61.7716C581.966 60.8221 582.44 60.3473 583.39 60.3473H590.003C591.088 60.3473 591.63 59.8726 591.63 58.9231C591.63 57.9735 591.088 57.4988 590.003 57.4988H583.39C582.44 57.4988 581.966 57.024 581.966 56.0745V44.7821C581.966 43.697 581.593 43.1544 580.847 43.1544C580.168 43.1544 579.592 43.8665 579.117 45.2908C578.1 48.4106 576.913 50.8861 575.556 52.7173C574.2 54.4807 572.403 56.1424 570.165 57.7023C569.554 58.1092 569.249 58.5839 569.249 59.1265C569.249 59.9404 569.792 60.3473 570.877 60.3473H573.827C574.641 60.3473 575.048 60.7543 575.048 61.5681V99.6164C575.048 103.414 575.794 106.161 577.286 107.857Z" fill="#121212"/>
<path fill-rule="evenodd" clip-rule="evenodd" d="M554.653 110.298C551.398 110.298 548.482 109.213 545.904 107.043C543.327 104.873 541.259 101.821 539.699 97.8869C538.207 93.8854 537.461 89.2735 537.461 84.0512C537.461 78.6932 538.24 73.9796 539.8 69.9103C541.36 65.8409 543.497 62.6533 546.21 60.3473C548.922 58.0414 551.941 56.8884 555.264 56.8884C559.265 56.8884 562.487 58.55 564.929 61.8733C567.438 65.1288 568.693 70.4528 568.693 77.8455C568.693 80.0836 567.845 81.2027 566.149 81.2027H546.82C545.464 81.2027 544.785 81.9826 544.785 83.5425C544.785 90.7317 545.837 96.1235 547.939 99.7181C550.042 103.313 552.721 105.11 555.976 105.11C558.553 105.11 560.656 104.194 562.283 102.363C563.911 100.532 565.234 97.4461 566.251 93.1054C566.454 92.3594 566.895 91.9864 567.574 91.9864C568.387 91.9864 568.693 92.6646 568.489 94.021C567.404 100.057 565.675 104.296 563.301 106.738C560.927 109.111 558.045 110.298 554.653 110.298ZM546.515 78.6593H556.79C560.045 78.6593 561.673 76.9638 561.673 73.5727C561.673 69.1642 561.13 65.7053 560.045 63.1959C558.96 60.6864 557.332 59.4317 555.162 59.4317C552.517 59.4317 550.279 60.9577 548.448 64.0097C546.684 67.0617 545.531 71.4023 544.989 77.0316C544.853 78.1167 545.362 78.6593 546.515 78.6593Z" fill="#121212"/>
<path fill-rule="evenodd" clip-rule="evenodd" d="M476.414 130.238C475.397 130.238 474.888 129.865 474.888 129.119C474.888 128.373 475.329 127.966 476.211 127.898L477.635 127.695C479.059 127.491 479.975 127.084 480.382 126.474C480.857 125.864 481.094 124.846 481.094 123.422V68.3843C481.094 67.1635 480.89 66.3496 480.484 65.9427C480.144 65.4679 479.5 65.1627 478.551 65.0271L476.414 64.7219C475.532 64.654 475.092 64.281 475.092 63.6028C475.092 63.0602 475.634 62.6872 476.719 62.4837C478.822 62.1446 480.416 61.602 481.501 60.856C482.654 60.1099 483.841 59.1943 485.062 58.1092C485.672 57.4988 486.181 57.1936 486.588 57.1936C487.198 57.1936 487.503 57.6005 487.503 58.4144V61.5681C487.503 62.0429 487.707 62.382 488.114 62.5855C488.52 62.7211 488.995 62.5176 489.538 61.9751L490.657 60.856C492.013 59.4996 493.404 58.5161 494.828 57.9057C496.252 57.2275 497.88 56.8884 499.711 56.8884C502.831 56.8884 505.578 57.9396 507.951 60.0421C510.393 62.0768 512.292 64.9253 513.649 68.5877C515.073 72.2501 515.785 76.5568 515.785 81.5078C515.785 87.1371 514.903 92.122 513.14 96.4626C511.377 100.803 508.935 104.194 505.815 106.636C502.763 109.078 499.236 110.298 495.235 110.298C493.2 110.298 491.403 109.925 489.843 109.179C488.622 108.637 488.012 109.01 488.012 110.298V123.422C488.012 124.846 488.215 125.796 488.622 126.27C489.097 126.813 490.046 127.186 491.471 127.39L495.235 127.898C495.981 128.034 496.354 128.407 496.354 129.017C496.354 129.831 495.845 130.238 494.828 130.238H476.414ZM495.54 107.755C499.338 107.755 502.39 105.517 504.696 101.041C507.07 96.5644 508.257 90.5282 508.257 82.9321C508.257 75.9464 507.239 70.6224 505.205 66.96C503.17 63.2976 500.288 61.4664 496.557 61.4664C494.251 61.4664 492.251 62.4159 490.555 64.3149C488.86 66.214 488.012 68.859 488.012 72.2501V97.8869C488.012 100.939 488.69 103.347 490.046 105.11C491.471 106.873 493.302 107.755 495.54 107.755Z" fill="#121212"/>
<path d="M406.615 108.264C406.615 109.01 407.124 109.383 408.141 109.383H425.334C426.351 109.383 426.86 108.976 426.86 108.162C426.86 107.552 426.487 107.179 425.741 107.043L422.994 106.738C421.57 106.602 420.62 106.229 420.145 105.619C419.738 105.008 419.535 103.991 419.535 102.567V75.3021C419.535 72.7927 420.044 70.5207 421.061 68.486C422.078 66.3835 423.401 64.7219 425.029 63.5011C426.724 62.2124 428.589 61.5681 430.624 61.5681C432.659 61.5681 434.252 62.2463 435.405 63.6028C436.626 64.9592 437.237 67.2991 437.237 70.6224V102.567C437.237 103.991 436.999 105.008 436.524 105.619C436.118 106.229 435.202 106.636 433.778 106.839L432.353 107.043C431.607 107.179 431.234 107.585 431.234 108.264C431.234 109.01 431.709 109.383 432.659 109.383H449.953C450.767 109.383 451.174 109.01 451.174 108.264C451.174 107.585 450.801 107.179 450.055 107.043L447.817 106.738C446.325 106.534 445.341 106.161 444.867 105.619C444.392 105.008 444.154 103.991 444.154 102.567V75.3021C444.154 72.7927 444.663 70.5207 445.68 68.486C446.698 66.3835 448.02 64.7219 449.648 63.5011C451.344 62.2124 453.209 61.5681 455.243 61.5681C457.278 61.5681 458.872 62.2463 460.025 63.6028C461.246 64.9592 461.856 67.2991 461.856 70.6224V102.567C461.856 103.991 461.619 105.008 461.144 105.619C460.669 106.229 459.652 106.636 458.092 106.839L456.668 107.043C455.922 107.179 455.549 107.585 455.549 108.264C455.549 109.01 456.023 109.383 456.973 109.383H474.369C475.183 109.383 475.59 109.01 475.59 108.264C475.59 107.585 475.217 107.179 474.471 107.043L472.233 106.738C470.809 106.534 469.859 106.161 469.384 105.619C468.977 105.008 468.774 103.991 468.774 102.567V69.5033C468.774 65.3662 467.858 62.2463 466.027 60.1439C464.264 57.9736 461.958 56.8884 459.109 56.8884C457.007 56.8884 454.938 57.3631 452.903 58.3127C450.869 59.2622 448.461 61.0255 445.68 63.6028C445.206 64.0775 444.697 64.281 444.154 64.2132C443.68 64.0775 443.341 63.7384 443.137 63.1959C442.391 61.0934 441.238 59.5335 439.678 58.5161C438.186 57.431 436.457 56.8884 434.49 56.8884C432.387 56.8884 430.285 57.3631 428.182 58.3127C426.148 59.2622 423.74 61.0595 420.959 63.7045C420.484 64.1793 420.044 64.3149 419.637 64.1115C419.23 63.8402 419.026 63.4671 419.026 62.9924V58.4144C419.026 57.6005 418.721 57.1936 418.111 57.1936C417.704 57.1936 417.195 57.4988 416.585 58.1092C415.364 59.1943 414.177 60.1099 413.024 60.856C411.939 61.602 410.345 62.1446 408.243 62.4837C407.157 62.6872 406.615 63.0602 406.615 63.6028C406.615 64.281 407.056 64.654 407.937 64.7219L410.074 65.0271C411.023 65.1627 411.668 65.4679 412.007 65.9427C412.414 66.3496 412.617 67.1635 412.617 68.3843V102.567C412.617 103.991 412.38 105.008 411.905 105.619C411.498 106.161 410.582 106.568 409.158 106.839L407.937 107.043C407.056 107.246 406.615 107.653 406.615 108.264Z" fill="#121212"/>
<path fill-rule="evenodd" clip-rule="evenodd" d="M391.511 110.298C388.255 110.298 385.339 109.213 382.762 107.043C380.184 104.873 378.116 101.821 376.556 97.8869C375.064 93.8854 374.318 89.2735 374.318 84.0512C374.318 78.6932 375.098 73.9796 376.658 69.9103C378.217 65.8409 380.354 62.6533 383.067 60.3473C385.78 58.0414 388.798 56.8884 392.121 56.8884C396.123 56.8884 399.344 58.55 401.786 61.8733C404.295 65.1288 405.55 70.4528 405.55 77.8455C405.55 80.0836 404.702 81.2027 403.006 81.2027H383.677C382.321 81.2027 381.643 81.9826 381.643 83.5425C381.643 90.7317 382.694 96.1235 384.796 99.7181C386.899 103.313 389.578 105.11 392.833 105.11C395.41 105.11 397.513 104.194 399.141 102.363C400.768 100.532 402.091 97.4461 403.108 93.1054C403.312 92.3594 403.753 91.9864 404.431 91.9864C405.245 91.9864 405.55 92.6646 405.346 94.021C404.261 100.057 402.532 104.296 400.158 106.738C397.784 109.111 394.902 110.298 391.511 110.298ZM383.372 78.6593H393.647C396.903 78.6593 398.53 76.9638 398.53 73.5727C398.53 69.1642 397.988 65.7053 396.902 63.1959C395.817 60.6864 394.19 59.4317 392.019 59.4317C389.374 59.4317 387.136 60.9577 385.305 64.0097C383.542 67.0617 382.389 71.4023 381.846 77.0316C381.71 78.1167 382.219 78.6593 383.372 78.6593Z" fill="#121212"/>
<path d="M345.173 108.264C345.173 109.01 345.681 109.383 346.699 109.383H369.589C370.606 109.383 371.115 109.01 371.115 108.264C371.115 107.518 370.674 107.111 369.792 107.043L365.214 106.331C363.926 106.127 363.01 105.788 362.467 105.313C361.993 104.771 361.755 103.787 361.755 102.363V41.3232C361.755 40.3737 361.959 39.6955 362.366 39.2885C362.773 38.8816 363.62 38.6781 364.909 38.6781C367.486 38.6781 369.996 39.7633 372.437 41.9336C374.879 44.1039 376.439 47.5968 377.117 52.4121L377.626 55.7693C377.761 56.651 378.236 57.0919 379.05 57.0919C380.067 57.0919 380.508 56.5154 380.372 55.3624L379.457 36.9487C379.321 35.3888 378.711 34.6088 377.626 34.6088C377.219 34.6088 376.778 34.7444 376.303 35.0157C375.896 35.2192 375.184 35.4566 374.167 35.7279C373.217 35.9992 371.657 36.1348 369.487 36.1348H346.8C344.63 36.1348 343.036 35.9992 342.019 35.7279C341.069 35.4566 340.391 35.2192 339.984 35.0157C339.577 34.7444 339.137 34.6088 338.662 34.6088C337.577 34.6088 336.966 35.3888 336.831 36.9487L335.915 55.3624C335.779 56.5154 336.22 57.0919 337.238 57.0919C338.051 57.0919 338.526 56.651 338.662 55.7693L339.17 52.4121C339.916 47.5968 341.51 44.1039 343.952 41.9336C346.394 39.7633 348.869 38.6781 351.378 38.6781C352.667 38.6781 353.515 38.8816 353.922 39.2885C354.329 39.6955 354.532 40.3737 354.532 41.3232V102.363C354.532 103.787 354.295 104.771 353.82 105.313C353.345 105.788 352.43 106.127 351.073 106.331L346.495 107.043C345.614 107.111 345.173 107.518 345.173 108.264Z" fill="#121212"/>
<path fill-rule="evenodd" clip-rule="evenodd" d="M306.881 110.298C303.626 110.298 300.709 109.213 298.132 107.043C295.555 104.873 293.486 101.821 291.926 97.8869C290.434 93.8854 289.688 89.2735 289.688 84.0512C289.688 78.6932 290.468 73.9796 292.028 69.9103C293.588 65.8409 295.724 62.6533 298.437 60.3473C301.15 58.0414 304.168 56.8884 307.492 56.8884C311.493 56.8884 314.715 58.55 317.156 61.8733C319.666 65.1288 320.92 70.4528 320.92 77.8455C320.92 80.0836 320.073 81.2027 318.377 81.2027H299.048C297.691 81.2027 297.013 81.9826 297.013 83.5425C297.013 90.7317 298.064 96.1235 300.167 99.7181C302.269 103.313 304.948 105.11 308.204 105.11C310.781 105.11 312.884 104.194 314.511 102.363C316.139 100.532 317.461 97.4461 318.479 93.1054C318.682 92.3594 319.123 91.9864 319.801 91.9864C320.615 91.9864 320.92 92.6646 320.717 94.021C319.632 100.057 317.902 104.296 315.529 106.738C313.155 109.111 310.272 110.298 306.881 110.298ZM298.743 78.6593H309.018C312.273 78.6593 313.901 76.9638 313.901 73.5727C313.901 69.1642 313.358 65.7053 312.273 63.1959C311.188 60.6864 309.56 59.4317 307.39 59.4317C304.745 59.4317 302.507 60.9577 300.676 64.0097C298.912 67.0617 297.759 71.4023 297.217 77.0316C297.081 78.1167 297.59 78.6593 298.743 78.6593Z" fill="#121212"/>
<path d="M275.684 46.3081C276.701 47.3255 277.922 47.8341 279.347 47.8341C280.771 47.8341 281.958 47.3255 282.907 46.3081C283.857 45.2908 284.331 44.0022 284.331 42.4423C284.331 40.8824 283.857 39.6276 282.907 38.6781C281.958 37.6608 280.771 37.1521 279.347 37.1521C277.922 37.1521 276.701 37.6608 275.684 38.6781C274.735 39.6276 274.26 40.8824 274.26 42.4423C274.26 44.0022 274.735 45.2908 275.684 46.3081Z" fill="#121212"/>
<path d="M269.275 108.264C269.275 109.01 269.784 109.383 270.801 109.383H287.79C288.808 109.383 289.316 108.976 289.316 108.162C289.316 107.552 288.943 107.179 288.197 107.043L285.654 106.738C284.501 106.602 283.721 106.229 283.314 105.619C282.907 105.008 282.704 103.991 282.704 102.567V58.4144C282.704 57.6005 282.399 57.1936 281.788 57.1936C281.381 57.1936 280.873 57.4988 280.262 58.1092C279.041 59.1943 277.787 60.1099 276.498 60.856C275.209 61.602 273.514 62.1446 271.411 62.4837C270.326 62.6872 269.784 63.0602 269.784 63.6028C269.784 64.281 270.224 64.654 271.106 64.7219L273.243 65.0271C274.192 65.1627 274.836 65.4679 275.175 65.9427C275.582 66.3496 275.786 67.1635 275.786 68.3843V102.567C275.786 103.991 275.548 105.008 275.074 105.619C274.599 106.161 273.514 106.568 271.818 106.839L270.597 107.043C269.716 107.246 269.275 107.653 269.275 108.264Z" fill="#121212"/>
<path d="M183.193 108.264C183.193 109.01 183.701 109.383 184.719 109.383H220.427C221.987 109.383 222.835 108.603 222.97 107.043L223.988 88.9344C224.123 87.7814 223.716 87.2049 222.767 87.2049C221.953 87.2049 221.444 87.6458 221.241 88.5274L220.02 94.5297C219.071 99.2773 217.375 102.533 214.933 104.296C212.56 105.992 209.677 106.839 206.286 106.839C202.963 106.839 200.657 106.297 199.368 105.212C198.147 104.127 197.537 102.363 197.537 99.9216V74.3865C197.537 73.437 198.012 72.9623 198.961 72.9623H203.946C205.506 72.9623 206.693 73.3353 207.507 74.0813C208.389 74.8274 209.067 76.3873 209.542 78.761L210.559 83.746C210.83 84.7633 211.407 85.2042 212.288 85.0685C213.034 84.9329 213.407 84.3564 213.407 83.339V60.4491C213.407 59.4317 213.034 58.8552 212.288 58.7196C211.407 58.584 210.83 59.0248 210.559 60.0421L209.542 65.1288C208.863 68.3164 207.032 69.9103 204.048 69.9103H198.961C198.012 69.9103 197.537 69.4355 197.537 68.486V43.9683C197.537 42.0014 198.046 40.645 199.063 39.8989C200.148 39.0851 202.047 38.6781 204.76 38.6781C208.829 38.6781 212.017 39.7633 214.323 41.9336C216.629 44.0361 218.155 47.3933 218.901 52.0052L219.511 55.7693C219.647 56.651 220.122 57.0919 220.936 57.0919C221.953 57.0919 222.394 56.5154 222.258 55.3624L221.444 38.4747C221.309 36.9148 220.461 36.1348 218.901 36.1348H184.719C183.701 36.1348 183.193 36.5078 183.193 37.2539C183.193 37.8643 183.634 38.2712 184.515 38.4747L186.855 38.8816C188.279 39.1529 189.195 39.5259 189.602 40.0007C190.077 40.4754 190.314 41.4249 190.314 42.8492V102.668C190.314 104.093 190.077 105.042 189.602 105.517C189.195 105.992 188.279 106.365 186.855 106.636L184.515 107.043C183.634 107.246 183.193 107.653 183.193 108.264Z" fill="#121212"/>
</svg>
