<svg width="145" height="145" viewBox="0 0 145 145" fill="none" xmlns="http://www.w3.org/2000/svg">
<path d="M65.1774 18.6551C57.5868 19.467 49.8621 21.6768 42.8306 24.8172C40.4677 25.878 38.166 27.0576 36.0366 28.4249C34.0757 29.6963 31.9923 31.2589 30.717 33.1163C29.5451 34.7708 29.7672 36.2338 31.2915 37.5589C33.0723 39.1866 35.6843 40.098 38.12 40.458C40.1374 40.7454 42.1723 40.7754 44.1832 40.4062L44.299 40.3717H44.3651C44.7593 40.2945 45.1526 40.2018 45.5446 40.0925C45.9105 39.9905 46.2966 39.9743 46.6652 40.0661L46.963 40.1402C48.514 40.527 49.46 42.101 49.0732 43.6521C48.8357 44.6019 48.1387 45.3295 47.2923 45.6589C44.8834 46.5742 42.5702 47.6925 40.3298 48.9295C27.8485 55.9036 15.1183 68.9287 16.3898 84.2019C18.0213 103.324 41.6894 118.597 59.8157 113.002C62.0179 112.278 64.0553 111.194 65.8476 109.812C69.1604 107.46 72.7145 112.056 69.5893 114.668C67.1345 116.403 64.3502 117.67 61.4702 118.478C42.7808 123.43 20.6562 110.512 14.1226 92.7117C10.063 81.858 13.0426 70.25 19.9936 61.3227C25.4509 54.2354 32.4681 48.9364 39.6004 43.7435C38.6009 43.4409 37.6014 43.1603 36.5984 42.8788L36.5968 42.8783C35.566 42.589 34.5315 42.2986 33.4898 41.9823C32.1264 41.5649 30.7323 41.1283 29.3383 40.347C25.5928 38.3134 24.7962 34.3725 26.9945 30.807C32.3523 22.4312 46.9055 16.6176 56.1966 14.1589C58.9081 13.458 61.6732 12.8912 64.5072 12.558C68.5898 12.2402 69.2447 18.0615 65.1774 18.6474V18.6551Z" fill="#121212"/>
<path d="M107.058 27.192C107.446 53.2517 101.131 83.1711 83.8094 102.979C83.3916 103.469 82.6799 104.219 82.0254 104.908C81.5998 105.357 81.1985 105.78 80.9179 106.089C79.7613 107.322 77.8196 107.387 76.5864 106.231C75.2689 105.009 75.311 102.895 76.6438 101.7C76.8714 101.472 77.1193 101.228 77.3779 100.972C78.3507 100.011 79.4753 98.9004 80.2438 97.9928C88.5123 88.8817 93.9928 77.6796 97.7038 65.9719C101.411 54.0881 103.372 41.6566 103.854 29.2175C103.903 27.8148 103.934 26.3908 103.927 25.0032C101.618 23.5333 99.1469 22.2603 96.5128 21.2091C95.4481 20.7648 94.2762 20.3091 93.1732 19.9529C88.6694 18.444 83.9549 17.5708 79.2481 17.5057C77.5477 17.4827 76.1881 16.0848 76.2149 14.3844C76.2187 12.4733 78.057 11.0065 79.9221 11.4163C82.4689 11.941 84.9851 12.5193 87.4553 13.2508C94.2034 15.204 100.703 18.0916 106.623 21.8831C110.415 24.2882 113.904 27.2218 116.991 30.4733C121.429 35.0844 125.087 40.3963 128.457 45.7963C129.361 47.2363 128.924 49.1397 127.484 50.0397C125.903 51.0469 123.731 50.3537 123.019 48.6188H123.015C119.486 40.0615 114.159 32.6221 107.058 27.192Z" fill="#121212"/>
<path fill-rule="evenodd" clip-rule="evenodd" d="M98.2697 94.7116C100.652 90.1284 103.038 85.5384 104.797 80.6745C107.156 74.1593 108.674 67.399 110.192 60.6367C110.665 58.5308 111.138 56.4246 111.637 54.3256C111.989 52.7745 113.601 51.8898 115.083 52.269C115.26 52.2979 115.664 52.3834 115.956 52.445C116.018 52.4581 116.075 52.4702 116.124 52.4803C116.15 52.4858 116.173 52.4907 116.194 52.4949C119.507 53.2609 122.689 54.4711 125.627 56.206C130.705 59.1435 134.734 64.1375 135.94 69.9358C137.756 78.1583 135.014 90.2183 129.311 96.4762C122.165 104.438 110.373 106.284 100.277 104.343C99.32 104.155 98.3051 103.921 97.3706 103.626L97.3698 103.625C97.3615 103.657 97.2188 103.636 96.2523 102.906C95.2642 101.899 95.2872 100.406 95.7736 99.563L95.7774 99.5707C96.5893 97.944 97.4293 96.3282 98.2697 94.7116ZM100.867 102.232C100.884 102.202 100.901 102.172 100.917 102.14L100.867 102.232ZM103.92 99.3562C103.437 99.2594 102.954 99.1592 102.472 99.0528C104.602 94.5253 106.265 89.7193 107.818 84.9983C110.796 76.0912 113.757 67.129 116.481 58.1474C125.719 59.5245 133.002 65.5938 133.106 75.6652C133.072 82.1452 131.463 89.4409 127.044 94.4388C121.322 100.919 111.801 100.934 103.92 99.3562ZM99.3238 98.2303C99.3657 98.2434 99.4076 98.2564 99.4495 98.2694C99.3284 98.2015 99.3003 98.206 99.3003 98.2217L99.3238 98.2303ZM99.3003 98.2217C99.3005 98.2398 99.3373 98.2724 99.3123 98.2264L99.3003 98.2217Z" fill="#121212"/>
<path fill-rule="evenodd" clip-rule="evenodd" d="M0.5 72.4824C0.5 32.7179 32.7355 0.482422 72.5 0.482422C112.264 0.482422 144.5 32.7179 144.5 72.4824C144.5 112.247 112.264 144.482 72.5 144.482C32.7355 144.482 0.5 112.247 0.5 72.4824ZM72.5 4.31221C34.8506 4.31221 4.32979 34.833 4.32979 72.4824C4.32979 110.132 34.8506 140.653 72.5 140.653C110.149 140.653 140.67 110.132 140.67 72.4824C140.67 34.833 110.149 4.31221 72.5 4.31221Z" fill="#121212"/>
</svg>
